<svg width="128" height="128" viewBox="0 0 128 128" fill="none" xmlns="http://www.w3.org/2000/svg">
<g clip-path="url(#clip0_7_215)">
<g clip-path="url(#clip1_7_215)">
<path d="M117.757 0.0114793H10.9597C9.58322 -0.0529948 8.20741 0.154588 6.9112 0.622465C5.61499 1.09034 4.42382 1.80923 3.40576 2.73795C2.38779 3.66674 1.56293 4.7872 0.978539 6.03509C0.394152 7.28305 0.0615986 8.63397 0 10.0106V117.041C0.0806381 119.922 1.26125 122.663 3.29936 124.7C5.33748 126.739 8.07853 127.919 10.9597 128H117.757C120.558 127.875 123.199 126.658 125.113 124.609C127.027 122.56 128.063 119.844 127.997 117.041V10.0106C128.02 8.67069 127.769 7.34033 127.259 6.10092C126.75 4.8616 125.992 3.73938 125.033 2.80306C124.075 1.86683 122.935 1.13634 121.684 0.656302C120.432 0.176266 119.096 -0.0431557 117.757 0.0114793ZM39.9991 106.722H21.3595V49.6872H39.9991V106.722ZM31.1193 41.0477C29.8186 41.0931 28.5225 40.8689 27.3126 40.3895C26.1027 39.91 25.0049 39.1855 24.0885 38.2615C23.1719 37.3375 22.4564 36.234 21.9868 35.0203C21.5171 33.8065 21.3036 32.5088 21.3595 31.2086C21.302 29.8943 21.5198 28.5826 21.9991 27.3575C22.4784 26.1324 23.2084 25.021 24.1424 24.0946C25.0765 23.1681 26.1938 22.4471 27.4228 21.9779C28.6519 21.5086 29.9655 21.3014 31.2793 21.3695C32.58 21.3242 33.876 21.5483 35.0859 22.0278C36.2959 22.5073 37.3936 23.2318 38.3101 24.1557C39.2266 25.0797 39.9422 26.1832 40.4118 27.397C40.8815 28.6107 41.095 29.9084 41.0391 31.2086C41.0966 32.5229 40.8787 33.8346 40.3995 35.0597C39.9202 36.2849 39.1901 37.3963 38.2562 38.3227C37.3221 39.2492 36.2048 39.9701 34.9758 40.4394C33.7467 40.9087 32.4331 41.1159 31.1193 41.0477ZM106.718 106.722H87.998V75.5248C87.998 68.0855 85.358 62.966 78.7182 62.966C76.6558 62.9836 74.6487 63.6387 72.9735 64.8418C71.2976 66.0449 70.0352 67.7367 69.3584 69.6853C68.8384 71.146 68.6208 72.6971 68.7184 74.2449V106.722H50.3188V49.6872H68.7184V57.6864C70.3544 54.6811 72.7887 52.1869 75.7535 50.4783C78.7182 48.7705 82.0973 47.9152 85.518 48.0071C97.5978 48.0071 106.718 56.0066 106.718 73.045V106.722Z" fill="#0F172A"/>
</g>
</g>
<defs>
<clipPath id="clip0_7_215">
<rect width="128" height="128" fill="white"/>
</clipPath>
<clipPath id="clip1_7_215">
<rect width="128" height="128" fill="white"/>
</clipPath>
</defs>
</svg>
