<svg width="128" height="128" viewBox="0 0 128 128" fill="none" xmlns="http://www.w3.org/2000/svg">
<g clip-path="url(#clip0_7_219)">
<path fill-rule="evenodd" clip-rule="evenodd" d="M40.256 115.199C88.5568 115.199 114.976 75.7975 114.976 41.6331C114.976 40.5115 114.976 39.3984 114.899 38.2894C120.038 34.6347 124.474 30.097 128 24.905C123.213 26.997 118.125 28.3689 112.922 28.9737C118.4 25.7413 122.502 20.6629 124.467 14.6706C119.309 17.6825 113.67 19.8082 107.789 20.9487C97.8432 10.5393 81.2096 10.035 70.6304 19.8269C63.8144 26.1405 60.9152 35.5541 63.0336 44.5331C41.92 43.4872 22.2464 33.6702 8.9088 17.5206C1.9392 29.3351 5.504 44.4435 17.0432 52.03C12.864 51.9102 8.7744 50.8024 5.12 48.7987V49.1269C5.1264 61.4329 13.9392 72.029 26.1888 74.4675C22.3232 75.5072 18.2656 75.6579 14.336 74.9081C17.7728 85.4435 27.6352 92.6596 38.8672 92.8675C29.568 100.063 18.08 103.971 6.2528 103.958C4.1664 103.952 2.08 103.832 0 103.586C12.0128 111.173 25.984 115.199 40.256 115.18" fill="#0F172A"/>
</g>
<defs>
<clipPath id="clip0_7_219">
<rect width="128" height="128" rx="10" fill="white"/>
</clipPath>
</defs>
</svg>
