<svg width="128" height="128" viewBox="0 0 128 128" fill="none" xmlns="http://www.w3.org/2000/svg">
<rect width="128" height="128" fill="#0F172A"/>
<path fill-rule="evenodd" clip-rule="evenodd" d="M34 49C34 43.3431 34 40.5147 35.7574 38.7574C37.5147 37 40.3431 37 46 37H82C87.6568 37 90.4852 37 92.2426 38.7574C94 40.5147 94 43.3431 94 49C94 54.6569 94 57.4853 92.2426 59.2426C90.4852 61 87.6568 61 82 61H46C40.3431 61 37.5147 61 35.7574 59.2426C34 57.4853 34 54.6569 34 49ZM46 46.75C44.7574 46.75 43.75 47.7574 43.75 49C43.75 50.2426 44.7574 51.25 46 51.25H52C53.2426 51.25 54.25 50.2426 54.25 49C54.25 47.7574 53.2426 46.75 52 46.75H46ZM58.75 49C58.75 47.7574 59.7574 46.75 61 46.75H82C83.2426 46.75 84.25 47.7574 84.25 49C84.25 50.2426 83.2426 51.25 82 51.25H61C59.7574 51.25 58.75 50.2426 58.75 49Z" fill="#F1F5F9"/>
<path fill-rule="evenodd" clip-rule="evenodd" d="M34 79C34 73.3432 34 70.5148 35.7574 68.7574C37.5147 67 40.3431 67 46 67H82C87.6568 67 90.4852 67 92.2426 68.7574C94 70.5148 94 73.3432 94 79C94 84.6568 94 87.4852 92.2426 89.2426C90.4852 91 87.6568 91 82 91H46C40.3431 91 37.5147 91 35.7574 89.2426C34 87.4852 34 84.6568 34 79ZM46 76.75C44.7574 76.75 43.75 77.7574 43.75 79C43.75 80.2426 44.7574 81.25 46 81.25H52C53.2426 81.25 54.25 80.2426 54.25 79C54.25 77.7574 53.2426 76.75 52 76.75H46ZM58.75 79C58.75 77.7574 59.7574 76.75 61 76.75H82C83.2426 76.75 84.25 77.7574 84.25 79C84.25 80.2426 83.2426 81.25 82 81.25H61C59.7574 81.25 58.75 80.2426 58.75 79Z" fill="#F1F5F9"/>
</svg>
