<svg width="128" height="128" viewBox="0 0 128 128" fill="none" xmlns="http://www.w3.org/2000/svg">
<rect width="128" height="128" fill="#0F172A"/>
<path d="M83.0936 47.7309C82.6207 47.2714 81.9572 47.0625 81.3079 47.1693C80.6574 47.2757 80.0957 47.684 79.7939 48.2701C78.7561 50.2862 77.4379 52.139 75.887 53.7769C76.0416 52.5937 76.1194 51.4035 76.1194 50.2101C76.1194 47.9202 75.8125 45.5638 75.2069 43.2054C73.2159 35.459 67.9949 28.908 60.8831 25.2322C60.2639 24.9123 59.5262 24.9236 58.917 25.2622C58.3078 25.601 57.9089 26.2221 57.8542 26.9168C57.2998 33.9564 53.6738 40.3608 47.9005 44.4921C47.8241 44.5472 47.7482 44.6029 47.6724 44.6584C47.5153 44.7733 47.3672 44.882 47.2288 44.9733C47.2071 44.9877 47.1856 45.0024 47.1646 45.0175C43.5336 47.6172 40.5376 51.0826 38.5001 55.0402C36.4297 59.0657 35.3799 63.3855 35.3799 67.8791C35.3799 70.1683 35.6868 72.5248 36.2921 74.8836C39.4864 87.3165 50.675 95.9998 63.5008 95.9998C79.0058 95.9998 91.62 83.3848 91.62 67.8791C91.62 60.2327 88.592 53.0773 83.0936 47.7309V47.7309Z" fill="#F1F5F9"/>
<circle cx="63.3529" cy="68.3529" r="8.35294" fill="#0F172A"/>
</svg>
