<svg width="128" height="128" viewBox="0 0 128 128" fill="none" xmlns="http://www.w3.org/2000/svg">
<g clip-path="url(#clip0_4_110)">
<path d="M100 83.7639C98.9521 84.1603 97.7954 84.1594 96.7481 83.7615C95.7008 83.3636 94.8354 82.5961 94.315 81.6039L83.965 67.2909L82.465 65.2899L70.456 81.6219C69.967 82.5725 69.1485 83.3124 68.1535 83.7033C67.1586 84.0942 66.0553 84.1094 65.05 83.7459L80.524 62.9859L66.13 44.2329C67.165 43.86 68.2969 43.855 69.3351 44.2189C70.3733 44.5829 71.2544 45.2934 71.83 46.2309L82.558 60.7209L93.346 46.2909C93.8389 45.3573 94.6576 44.6373 95.6465 44.2678C96.6355 43.8984 97.7258 43.9052 98.71 44.2869L93.124 51.6999L85.558 61.5489C85.3479 61.7364 85.1798 61.9661 85.0647 62.223C84.9495 62.48 84.89 62.7584 84.89 63.0399C84.89 63.3215 84.9495 63.5999 85.0647 63.8568C85.1798 64.1138 85.3479 64.3435 85.558 64.5309L99.97 83.7669L100 83.7639ZM28.006 62.7279L29.266 56.5029C32.728 44.1939 46.84 39.0729 56.548 46.6929C62.233 51.1599 63.652 57.4839 63.373 64.6119H31.348C30.829 77.3409 40.015 85.0269 51.76 81.0999C53.664 80.4146 55.3683 79.2677 56.7201 77.7619C58.072 76.2561 59.0292 74.4385 59.506 72.4719C60.127 70.4739 61.15 70.1319 63.028 70.7079C62.7151 73.1451 61.8536 75.4795 60.5082 77.5357C59.1629 79.5919 57.3689 81.3162 55.261 82.5789C51.7793 84.4834 47.7845 85.2383 43.8479 84.7356C39.9113 84.2328 36.2344 82.4983 33.343 79.7799C30.4841 76.5621 28.7563 72.4974 28.423 68.2059C28.423 67.5009 28.183 66.8409 28.021 66.2079C28.0064 65.049 27.9994 63.89 28 62.7309L28.006 62.7279ZM31.387 61.8699H60.349C60.169 52.6419 54.346 46.0959 46.579 46.0359C37.933 45.9159 31.747 52.3179 31.366 61.8279L31.387 61.8699Z" fill="#0F172A"/>
</g>
<defs>
<clipPath id="clip0_4_110">
<rect width="72" height="72" fill="white" transform="translate(28 28)"/>
</clipPath>
</defs>
</svg>
