<svg width="128" height="128" viewBox="0 0 128 128" fill="none" xmlns="http://www.w3.org/2000/svg">
<g clip-path="url(#clip0_4_103)">
<path d="M81.439 95.506C81.172 95.647 81.187 95.704 81.454 95.569C81.5322 95.5355 81.6034 95.4877 81.664 95.428C81.664 95.38 81.658 95.386 81.439 95.506ZM81.973 95.224C81.847 95.323 81.847 95.329 82 95.251C82.084 95.209 82.156 95.161 82.156 95.146C82.156 95.089 82.12 95.104 81.973 95.224ZM82.324 95.011C82.198 95.11 82.198 95.116 82.351 95.038C82.435 94.996 82.507 94.948 82.507 94.933C82.507 94.876 82.471 94.891 82.324 95.011ZM82.675 94.801C82.549 94.9 82.549 94.906 82.702 94.828C82.786 94.786 82.858 94.738 82.858 94.723C82.858 94.666 82.822 94.681 82.675 94.801ZM83.161 94.486C82.915 94.642 82.837 94.747 83.056 94.627C83.212 94.537 83.464 94.345 83.422 94.339C83.33 94.3785 83.2425 94.4278 83.161 94.486ZM61.642 28.018C61.486 28.033 60.994 28.081 60.55 28.117C50.326 29.038 40.747 34.555 34.681 43.036C31.3275 47.691 29.1477 53.0869 28.327 58.765C28.039 60.742 28.003 61.327 28.003 64.009C28.003 66.691 28.039 67.273 28.327 69.253C30.283 82.771 39.904 94.129 52.951 98.338C55.288 99.091 57.751 99.604 60.55 99.913C61.642 100.033 66.355 100.033 67.447 99.913C72.28 99.379 76.378 98.182 80.416 96.121C81.034 95.803 81.154 95.719 81.07 95.65C79.0976 93.0438 77.1435 90.4238 75.208 87.79L69.451 80.014L62.239 69.34C59.8411 65.7684 57.42 62.2123 54.976 58.672C54.949 58.666 54.919 63.409 54.907 69.199C54.886 79.339 54.88 79.747 54.751 79.987C54.6286 80.2674 54.4092 80.4943 54.133 80.626C53.908 80.74 53.71 80.761 52.648 80.761H51.43L51.106 80.557C50.9061 80.431 50.7435 80.2539 50.635 80.044L50.488 79.726L50.503 65.617L50.524 51.502L50.743 51.229C50.8901 51.0562 51.0669 50.9109 51.265 50.8C51.553 50.659 51.667 50.644 52.885 50.644C54.322 50.644 54.559 50.701 54.934 51.109C57.8534 55.4538 60.7485 59.8148 63.619 64.192C68.293 71.278 74.68 80.953 77.821 85.705L83.521 94.339L83.809 94.15C86.5517 92.3257 89.0387 90.1434 91.204 87.661C95.7399 82.47 98.6816 76.0805 99.676 69.259C99.964 67.282 100 66.697 100 64.015C100 61.333 99.964 60.751 99.676 58.771C97.72 45.253 88.099 33.895 75.052 29.686C72.6138 28.9098 70.1028 28.3841 67.558 28.117C66.883 28.048 62.23 27.97 61.648 28.027L61.642 28.018ZM76.378 49.792C76.5458 49.8764 76.6951 49.9933 76.8172 50.136C76.9392 50.2786 77.0317 50.4442 77.089 50.623C77.146 50.806 77.158 54.718 77.146 63.535L77.125 76.189L74.893 72.769L72.655 69.349V60.151C72.655 54.205 72.682 50.863 72.724 50.701C72.7749 50.5141 72.8627 50.3392 72.9822 50.1867C73.1018 50.0342 73.2506 49.9071 73.42 49.813C73.708 49.666 73.813 49.651 74.92 49.651C75.961 49.651 76.144 49.666 76.378 49.792Z" fill="#0F172A"/>
</g>
<defs>
<clipPath id="clip0_4_103">
<rect width="72" height="72" fill="white" transform="translate(28 28)"/>
</clipPath>
</defs>
</svg>
