<svg width="128" height="128" viewBox="0 0 128 128" fill="none" xmlns="http://www.w3.org/2000/svg">
<path d="M95.8635 48.794V79.1849C95.8635 81.1572 94.8024 82.9936 93.0971 83.9863L66.7654 99.1901C65.9232 99.6786 64.9679 99.9297 63.9924 99.9297C63.0308 99.9297 62.073 99.6786 61.2307 99.1901L52.4387 93.9884C51.1272 93.2562 51.7672 92.9957 52.2007 92.8454C53.9521 92.2376 54.3063 92.0976 56.1759 91.0365C56.371 90.925 56.6282 90.9686 56.8294 91.0848L63.5838 95.0953C63.8286 95.2332 64.1744 95.2332 64.3995 95.0953L90.7334 79.8957C90.9786 79.7556 91.1359 79.4762 91.1359 79.1851V48.794C91.1359 48.4963 90.9786 48.2183 90.7272 48.068L64.4042 32.8819C64.1614 32.7399 63.8374 32.7399 63.593 32.8819L37.2759 48.0722C37.0203 48.2185 36.859 48.5052 36.859 48.794V79.1849C36.859 79.4759 37.0201 79.7487 37.2744 79.8867L44.4883 84.0568C48.4017 86.0119 50.7988 83.7073 50.7988 81.3911V51.3872C50.7988 50.9629 51.1396 50.6284 51.5637 50.6284H54.9031C55.3206 50.6284 55.6666 50.9628 55.6666 51.3872V81.3912C55.6666 86.6149 52.8209 89.6113 47.8686 89.6113C46.3476 89.6113 45.148 89.6113 41.8024 87.9642L34.8979 83.9863C33.1917 83.0026 32.1364 81.1573 32.1364 79.1849V48.794C32.1364 46.8192 33.1917 44.9761 34.8979 43.9938L61.2308 28.7771C62.8972 27.8347 65.1132 27.8347 66.7654 28.7771L93.0971 43.9938C94.8024 44.9802 95.8635 46.8192 95.8635 48.794ZM73.1647 76.286C65.3066 76.286 63.5776 74.3105 62.9983 70.4028C62.9313 69.9857 62.5739 69.675 62.1457 69.675H58.3058C57.8302 69.675 57.4486 70.0551 57.4486 70.5334C57.4486 75.534 60.1702 81.4981 73.1647 81.4981C82.5733 81.4981 87.9681 77.7942 87.9681 71.3248C87.9681 64.9091 83.6331 63.2023 74.5091 61.9944C65.287 60.774 64.3499 60.1456 64.3499 57.9854C64.3499 56.205 65.1434 53.8256 71.974 53.8256C78.0735 53.8256 80.3222 55.1403 81.2468 59.2504C81.3282 59.6378 81.6804 59.9204 82.0797 59.9204H85.9341C86.1732 59.9204 86.4003 59.8178 86.5627 59.6472C86.7256 59.4672 86.8121 59.2328 86.7893 58.987C86.1929 51.9027 81.4859 48.6027 71.9739 48.6027C63.507 48.6027 58.4573 52.1765 58.4573 58.1654C58.4573 64.6647 63.4817 66.4623 71.6057 67.2642C81.3282 68.2179 82.0828 69.6383 82.0828 71.5515C82.0828 74.8701 79.4202 76.286 73.1647 76.286Z" fill="#0F172A"/>
</svg>
