<svg width="128" height="128" viewBox="0 0 128 128" fill="none" xmlns="http://www.w3.org/2000/svg">
<g clip-path="url(#clip0_4_99)">
<path d="M64 58.33C65.107 58.3301 66.1892 58.6576 67.1104 59.2715C68.0316 59.8853 68.7507 60.7579 69.177 61.7795C69.6033 62.8011 69.7178 63.926 69.5062 65.0126C69.2945 66.0992 68.7662 67.0988 67.9876 67.8857C67.209 68.6726 66.215 69.2116 65.1308 69.4348C64.0465 69.658 62.9205 69.5554 61.8944 69.14C60.8683 68.7246 59.9881 68.0149 59.3645 67.1003C58.7409 66.1856 58.4018 65.1069 58.39 64C58.3861 63.2594 58.528 62.5252 58.8078 61.8394C59.0876 61.1536 59.4997 60.5296 60.0207 60.0031C60.5416 59.4766 61.1612 59.0579 61.8439 58.7708C62.5267 58.4837 63.2593 58.334 64 58.33ZM50.11 88C52 89.14 56.11 87.4 60.91 82.9C59.3057 81.0769 57.7938 79.1745 56.38 77.2C53.9603 76.929 51.5568 76.5285 49.18 76C47.65 82.42 48.22 86.83 50.11 88ZM52.24 70.78L51.37 69.25C51.0309 70.0927 50.7404 70.9541 50.5 71.83C51.31 72.01 52.21 72.16 53.14 72.31L52.24 70.78ZM71.86 68.5L74.29 64L71.86 59.5C70.96 57.91 70 56.5 69.13 55.09C67.51 55 65.8 55 64 55C62.2 55 60.49 55 58.87 55C58 56.41 57.04 57.82 56.14 59.41L53.71 64L56.14 68.5C57.04 70.09 58 71.5 58.87 72.91C60.49 72.91 62.2 72.91 64 72.91C65.8 72.91 67.51 72.91 69.13 72.91C70 71.5 70.96 70.09 71.86 68.5ZM64 48.34C63.43 49 62.83 49.69 62.23 50.5H65.77C65.17 49.69 64.57 49 64 48.34ZM64 79.66C64.57 79 65.17 78.31 65.77 77.5H62.23C62.83 78.31 63.43 79 64 79.66ZM77.86 40C76 38.86 71.86 40.6 67.09 45.1C68.6943 46.9231 70.2062 48.8255 71.62 50.8C74.0375 51.0314 76.441 51.3919 78.82 51.88C80.35 45.46 79.78 41.05 77.86 39.88M75.76 57.1L76.63 58.63C76.9691 57.7874 77.2596 56.926 77.5 56.05C76.69 55.87 75.79 55.72 74.86 55.57L75.76 57.1ZM80.11 36.1C84.52 38.62 85 45.25 83.11 52.99C90.73 55.24 96.22 58.99 96.22 64.03C96.22 69.07 90.73 72.82 83.11 75.07C84.97 82.81 84.49 89.44 80.11 91.96C75.73 94.48 69.76 91.6 64 86.11C58.24 91.6 52.27 94.48 47.86 91.96C43.45 89.44 43 82.96 44.86 75.07C37.24 72.82 31.75 69.07 31.75 64.03C31.75 58.99 37.24 55.21 44.86 52.96C43 45.22 43.48 38.59 47.86 36.07C52.24 33.55 58.24 36.43 64 41.92C69.76 36.43 75.73 33.55 80.11 36.07M79.24 64C80.2819 66.2085 81.2033 68.4718 82 70.78C88.3 68.89 91.84 66.19 91.84 64C91.84 61.81 88.21 59.11 82 57.22C81.2033 59.5283 80.2819 61.7916 79.24 64ZM48.76 64C47.7181 61.7916 46.7967 59.5283 46 57.22C39.7 59.11 36.16 61.81 36.16 64C36.16 66.19 39.79 68.89 46 70.78C46.7967 68.4718 47.7181 66.2085 48.76 64ZM75.76 70.78L74.86 72.31C75.79 72.31 76.69 72.01 77.5 71.83C77.2596 70.9541 76.9691 70.0927 76.63 69.25L75.76 70.78ZM67 82.9C71.77 87.4 76 89.14 77.77 88C79.54 86.86 80.26 82.54 78.73 76C76.351 76.4882 73.9475 76.8487 71.53 77.08C70.1195 79.0955 68.6075 81.038 67 82.9ZM52.24 57.22L53.14 55.69C52.21 55.69 51.31 55.99 50.5 56.17C50.7404 57.046 51.0309 57.9074 51.37 58.75L52.24 57.22ZM61 45.1C56.14 40.6 52 38.86 50.11 40C48.22 41.14 47.65 45.46 49.18 52C51.559 51.5119 53.9625 51.1514 56.38 50.92C57.8197 48.9025 59.3617 46.96 61 45.1Z" fill="#0F172A"/>
</g>
<defs>
<clipPath id="clip0_4_99">
<rect width="72" height="72" fill="white" transform="translate(28 28)"/>
</clipPath>
</defs>
</svg>
