<svg width="128" height="128" viewBox="0 0 128 128" fill="none" xmlns="http://www.w3.org/2000/svg">
<path d="M96.463 60.9918L66.9993 31.5303C66.2118 30.745 65.125 30.259 63.9235 30.259C62.722 30.259 61.6353 30.745 60.8478 31.5303L54.7435 37.6458L62.5038 45.406C62.9988 45.2328 63.568 45.1338 64.162 45.1338C67.0173 45.1338 69.3303 47.4468 69.3303 50.302C69.3303 50.9073 69.2268 51.4855 69.0355 52.0255L69.0468 51.9895L76.5213 59.4685C77.0208 59.2908 77.599 59.1873 78.1998 59.1873C81.0528 59.1873 83.3658 61.5003 83.3658 64.3533C83.3658 67.2063 81.0528 69.5193 78.1998 69.5193C75.3468 69.5193 73.0338 67.2063 73.0338 64.3533C73.0338 63.649 73.1755 62.9785 73.4298 62.3665L73.4163 62.4003L66.4188 55.4388V73.7853C68.1378 74.6515 69.2965 76.402 69.2965 78.4225C69.2965 81.28 66.979 83.5975 64.1215 83.5975C61.264 83.5975 58.9465 81.28 58.9465 78.4225C58.9465 76.996 59.5225 75.7068 60.4563 74.7708C60.931 74.296 61.4958 73.9113 62.1235 73.6413L62.1573 73.6278V55.1013C60.2628 54.3048 58.9578 52.462 58.9578 50.3178C58.9578 49.5978 59.104 48.9138 59.3695 48.2905L59.356 48.3243L51.7308 40.663L31.5258 60.8545C30.7428 61.6443 30.2613 62.731 30.2613 63.9325C30.2613 65.134 30.745 66.2208 31.528 67.0105L60.994 96.4675C61.7793 97.255 62.866 97.741 64.0675 97.741C65.269 97.741 66.3535 97.255 67.141 96.4675L96.4675 67.141C97.255 66.3558 97.7433 65.2668 97.7433 64.0675C97.7433 62.8683 97.255 61.7793 96.4675 60.994L96.463 60.9918Z" fill="#0F172A"/>
</svg>
