<svg width="128" height="128" viewBox="0 0 128 128" fill="none" xmlns="http://www.w3.org/2000/svg">
<g clip-path="url(#clip0_4_182)">
<path d="M68.5809 28.2947C48.8597 25.7747 30.8237 39.6954 28.2947 59.4189C25.7747 79.1402 39.6954 97.1762 59.4189 99.7052C79.1402 102.225 97.1762 88.3044 99.6939 68.5809C102.225 48.8597 88.3067 30.8237 68.5809 28.2947ZM75.9879 50.7587C75.3197 50.7587 74.6852 51.0287 74.2172 51.5079L60.8589 64.8549L59.9342 63.9392L58.0104 62.0064C71.1707 48.8822 73.5512 48.7517 75.9857 50.7564L75.9879 50.7587ZM61.4102 65.3342L74.7212 52.0119C75.4592 51.2379 76.6899 51.2492 77.4302 52.0232C78.1569 52.8084 78.0849 54.0392 77.2659 54.7164L63.1697 67.0914L61.4102 65.3342ZM62.3957 67.4222L59.0904 68.1354C59.0207 68.1467 58.9284 68.1107 58.8924 68.0297C58.8564 67.9577 58.8677 67.8767 58.9284 67.8159L60.8612 65.8832L62.3957 67.4222ZM53.9807 66.0407L57.5087 62.5239L60.1457 65.1609L54.2034 66.4367C54.0977 66.4614 53.9942 66.4164 53.9447 66.3197C53.8884 66.2274 53.9109 66.1104 53.9807 66.0407ZM43.0479 84.2139C42.9197 84.2027 42.8229 84.0857 42.8342 83.9687C42.8454 83.9124 42.8702 83.8629 42.9062 83.8269H42.9174L45.7524 80.9919L49.4222 84.6617L43.0479 84.2139ZM50.3222 80.4407C50.0432 80.5937 49.9014 80.9109 49.9712 81.2147L50.5809 83.8067C50.6777 84.1824 50.2187 84.4367 49.9487 84.1577H49.9374L46.2587 80.4767L57.5447 69.2019L63.0054 68.0207L65.6177 70.6464C61.8557 73.9494 56.7099 77.2434 50.3244 80.4407H50.3222ZM66.1577 70.1649L63.6377 67.6449L77.7339 55.2699C77.8622 55.1529 77.9792 55.0247 78.0849 54.8942C77.6529 58.9262 72.0032 64.6209 66.1577 70.1649ZM77.1377 50.7812H77.1264C72.2147 45.8469 79.1537 38.2644 84.4974 42.7172L79.6712 47.5592C79.5294 47.6964 79.5294 47.9349 79.6712 48.0722L83.4084 51.8139C81.3114 52.8557 78.7914 52.4349 77.1377 50.7812ZM84.8597 50.7812C84.6144 51.0264 84.3444 51.2492 84.0519 51.4359L80.4317 47.8157L85.0239 43.2099C87.0152 45.3789 86.9342 48.7067 84.8597 50.7812ZM84.5649 46.1529C84.4142 46.2587 84.3557 46.4432 84.4029 46.6209C84.6257 47.0642 84.5649 47.5929 84.2499 47.9687C84.0969 48.1577 84.1329 48.4164 84.3197 48.5649C84.3917 48.6122 84.4727 48.6482 84.5649 48.6482C84.6932 48.6482 84.8147 48.6009 84.8822 48.5064C85.4109 47.8742 85.5144 46.9832 85.1522 46.2452C85.0104 46.0584 84.7539 46.0112 84.5649 46.1529Z" fill="#0F172A"/>
</g>
<defs>
<clipPath id="clip0_4_182">
<rect width="72" height="72" fill="white" transform="translate(28 28)"/>
</clipPath>
</defs>
</svg>
