<svg width="128" height="128" viewBox="0 0 128 128" fill="none" xmlns="http://www.w3.org/2000/svg">
<g clip-path="url(#clip0_4_178)">
<path d="M28.685 53.1075C28.685 53.1075 26.9314 51.8298 29.0358 50.1237L33.9387 45.6921C33.9387 45.6921 35.3416 44.2002 36.8249 45.5001L82.0693 80.1251V96.7283C82.0693 96.7283 82.0474 99.3356 78.7372 99.0476L28.685 53.1075Z" fill="#0F172A"/>
<path d="M40.3467 63.8101L28.6848 74.5267C28.6848 74.5267 27.4865 75.4279 28.6848 77.038L34.0992 82.0159C34.0992 82.0159 35.3852 83.4118 37.2851 81.8239L49.6483 72.3481L40.3467 63.8101Z" fill="#0F172A"/>
<path d="M60.82 63.8982L82.2073 47.3908L82.0684 30.8759C82.0684 30.8759 81.1549 27.2715 78.1081 29.1476L49.6477 55.3307L60.82 63.8982Z" fill="#0F172A"/>
<path d="M78.7363 99.07C79.9783 100.355 81.4837 99.934 81.4837 99.934L98.1514 91.6324C100.285 90.1624 99.9856 88.3381 99.9856 88.3381V38.7641C99.9856 36.5853 97.7788 35.8319 97.7788 35.8319L83.3323 28.7931C80.1757 26.8211 78.1081 29.1476 78.1081 29.1476C78.1081 29.1476 80.7676 27.2125 82.0684 30.8759V96.4258C82.0684 96.8764 81.9733 97.3195 81.7834 97.7182C81.4033 98.4937 80.5777 99.2176 78.5974 98.9149L78.7363 99.07Z" fill="#0F172A"/>
</g>
<defs>
<clipPath id="clip0_4_178">
<rect width="72" height="72" fill="white" transform="translate(28 28)"/>
</clipPath>
</defs>
</svg>
