<svg width="128" height="128" viewBox="0 0 128 128" fill="none" xmlns="http://www.w3.org/2000/svg">
<path d="M70.4665 50.3538L65.35 40.564C65.089 40.0758 64.5828 39.7473 64 39.7473C63.4173 39.7473 62.911 40.0735 62.6545 40.555L62.65 40.564L40.1837 80.8255L70.4665 50.3538ZM88.417 84.7045L82.09 45.3408C81.973 44.6095 81.3452 44.056 80.5892 44.056C80.164 44.056 79.7815 44.2293 79.5048 44.5105L39.5807 84.7068L61.669 97.1538C62.3125 97.5205 63.082 97.7388 63.901 97.7388C64.72 97.7388 65.4918 97.5228 66.1555 97.1425L66.133 97.1538L88.417 84.7045ZM41.1962 74.3253L47.845 31.5573C47.9597 30.8193 48.5897 30.259 49.3525 30.259C49.933 30.259 50.4392 30.583 50.6957 31.0623L50.7002 31.0713L57.8508 44.4858L41.1962 74.3253Z" fill="#0F172A"/>
</svg>
