<svg width="128" height="128" viewBox="0 0 128 128" fill="none" xmlns="http://www.w3.org/2000/svg">
<path d="M63.5973 80.1662C63.5973 80.1662 63.5973 56.854 64.3713 56.8562C64.9698 56.8562 65.7483 86.9275 65.7483 86.9275C64.6773 86.8015 63.5973 81.9797 63.5973 80.1662ZM78.6003 57.1262C76.5325 48.0902 72.0033 40.321 65.7573 34.3247L65.7415 34.3112C64.981 33.1502 64.2857 31.8182 63.7277 30.4142L63.6737 30.2612C63.676 30.3062 63.676 30.3602 63.676 30.4142C63.676 31.6855 63.1068 32.8217 62.209 33.5845L62.2023 33.589C54.1608 40.4155 49.0442 50.4752 48.8755 61.732V61.7612C48.8732 61.9007 48.8733 62.065 48.8733 62.2292C48.8733 73.3825 54.2395 83.2825 62.5308 89.488L62.6185 89.551L62.8142 89.6927C63.1757 92.3687 63.4848 95.0507 63.7413 97.7387H65.0935C65.467 94.384 65.971 91.4477 66.6303 88.5677L66.5267 89.1055C67.4177 88.4867 68.1962 87.8455 68.923 87.1502L68.9162 87.157C75.2185 81.3137 79.1515 72.9887 79.1515 63.748C79.1515 63.6107 79.1515 63.4757 79.1492 63.3385V63.3587C79.1425 61.1515 78.9423 58.9937 78.562 56.899L78.5957 57.1217L78.6003 57.1262Z" fill="#0F172A"/>
</svg>
