<svg width="128" height="128" viewBox="0 0 128 128" fill="none" xmlns="http://www.w3.org/2000/svg">
<g clip-path="url(#clip0_24_2)">
<path d="M81.625 38.7042C81.157 38.7042 80.845 38.7672 80.53 38.8452V38.8932H80.578C80.797 39.2982 81.157 39.6132 81.436 39.9882C81.655 40.4112 81.841 40.8462 82.045 41.2692L82.108 41.2062C82.483 40.9392 82.672 40.5192 82.672 39.8772C82.516 39.6882 82.483 39.4872 82.345 39.3132C82.189 39.0462 81.844 38.9082 81.625 38.7042ZM39.079 91.4832H35.377C35.251 85.2342 34.876 79.3572 34.3 73.8432H34.27L28.63 91.4832H25.801L20.206 73.8432H20.158C19.753 79.1232 19.486 85.0152 19.378 91.4832H16.003C16.222 83.6082 16.768 76.2342 17.644 69.3582H22.237L27.58 85.6092H27.61L33.001 69.3582H37.375C38.344 77.4222 38.923 84.7962 39.094 91.4832H39.079ZM55.141 75.1572C53.641 83.3442 51.64 89.2992 49.189 93.0012C47.251 95.8602 45.142 97.2972 42.844 97.2972C42.235 97.2972 41.485 97.1082 40.579 96.7332V94.7652C41.032 94.8282 41.548 94.8732 42.127 94.8732C43.204 94.8732 44.065 94.5612 44.722 93.9822C45.502 93.2622 45.895 92.4522 45.895 91.5612C45.895 90.9372 45.598 89.6862 44.974 87.7812L40.927 75.1572H44.569L47.476 84.5952C48.133 86.7522 48.415 88.2372 48.289 89.0952C49.897 84.8442 51.007 80.1882 51.634 75.1572H55.141ZM104.452 91.4832H93.922V69.3582H97.468V88.7652H104.452V91.4832ZM91.171 92.0172L87.109 90.0162C87.469 89.7192 87.811 89.3922 88.126 89.0172C89.86 87.0012 90.721 83.9862 90.721 80.0172C90.721 72.6882 87.847 69.0342 82.096 69.0342C79.282 69.0342 77.08 69.9552 75.502 71.8152C73.783 73.8462 72.907 76.8462 72.907 80.8002C72.907 84.6912 73.672 87.5352 75.205 89.3622C76.612 90.9882 78.721 91.8162 81.55 91.8162C82.597 91.8162 83.566 91.6902 84.442 91.4262L89.74 94.5192L91.192 92.0202L91.171 92.0172ZM78.001 87.0462C77.095 85.6092 76.657 83.2962 76.657 80.1072C76.657 74.5302 78.346 71.7492 81.736 71.7492C83.503 71.7492 84.814 72.4212 85.642 73.7502C86.533 75.2022 86.986 77.4852 86.986 80.6412C86.986 86.2512 85.282 89.0802 81.907 89.0802C80.125 89.0802 78.829 88.4082 77.986 87.0792L78.001 87.0462ZM71.374 85.3602C71.374 87.2352 70.687 88.7832 69.295 89.9682C67.921 91.1712 66.091 91.7802 63.763 91.7802C61.591 91.7802 59.512 91.0932 57.466 89.7162L58.42 87.8112C60.169 88.6872 61.747 89.1252 63.187 89.1252C64.516 89.1252 65.563 88.8282 66.313 88.2492C67.063 87.6552 67.516 86.8272 67.516 85.7802C67.516 84.4662 66.595 83.3412 64.921 82.4052C63.373 81.5472 60.265 79.7802 60.265 79.7802C58.576 78.5472 57.748 77.2332 57.748 75.0612C57.748 73.2642 58.372 71.8272 59.623 70.7322C60.889 69.6072 62.497 69.0612 64.498 69.0612C66.544 69.0612 68.419 69.6072 70.108 70.7022L69.25 72.6072C67.813 71.9982 66.391 71.6862 64.999 71.6862C63.859 71.6862 62.983 71.9682 62.374 72.5142C61.765 73.0602 61.39 73.7472 61.39 74.6082C61.39 75.9222 62.329 77.0472 64.045 78.0132C65.623 78.8712 68.794 80.6862 68.794 80.6862C70.528 81.9042 71.389 83.2182 71.389 85.3572L71.374 85.3602ZM108.892 61.9392C106.75 61.8912 105.094 62.1102 103.705 62.7042C103.315 62.8602 102.673 62.8602 102.61 63.3612C102.829 63.5802 102.859 63.9252 103.048 64.2192C103.375 64.7502 103.924 65.4702 104.44 65.8452C105.004 66.2832 105.565 66.7212 106.144 67.0962C107.191 67.7382 108.364 68.1132 109.393 68.7522C109.972 69.1272 110.566 69.6102 111.142 70.0032C111.439 70.2072 111.625 70.5672 112 70.6902V70.6122C111.811 70.3782 111.766 70.0332 111.577 69.7542C111.31 69.4872 111.046 69.2532 110.779 68.9892C109.999 67.9422 109.045 67.0362 107.998 66.2862C107.14 65.7072 105.265 64.8942 104.92 63.9102L104.872 63.8472C105.451 63.7992 106.138 63.5802 106.699 63.4242C107.605 63.1902 108.448 63.2352 109.387 63.0012C109.81 62.8932 110.23 62.7672 110.668 62.6262V62.3922C110.185 61.9092 109.825 61.2522 109.324 60.7992C107.965 59.6262 106.465 58.4712 104.917 57.5172C104.074 56.9712 103.012 56.6262 102.121 56.1732C101.809 56.0172 101.263 55.9392 101.089 55.6722C100.606 55.0782 100.324 54.3132 99.979 53.6082C99.214 52.1382 98.464 50.5152 97.792 48.9522C97.309 47.9052 97.027 46.8732 96.433 45.9042C93.682 41.3562 90.682 38.6082 86.089 35.9052C85.105 35.3412 83.917 35.1072 82.666 34.8102C81.994 34.7802 81.337 34.7322 80.665 34.7022C80.227 34.5132 79.807 34.0152 79.432 33.7632C77.902 32.7942 73.963 30.7152 72.853 33.4662C72.133 35.2152 73.915 36.9192 74.542 37.7952C74.995 38.4192 75.574 39.1092 75.901 39.7962C76.09 40.2642 76.135 40.7502 76.324 41.2332C76.747 42.4062 77.152 43.7172 77.716 44.8122C78.013 45.3762 78.325 45.9672 78.7 46.4682C78.919 46.7652 79.294 46.8912 79.372 47.3742C78.997 47.9202 78.967 48.7182 78.763 49.3752C77.794 52.4052 78.169 56.1402 79.528 58.3752C79.966 59.0472 80.98 60.5172 82.342 59.9532C83.545 59.4702 83.281 57.9522 83.623 56.6082C83.701 56.2812 83.653 56.0772 83.812 55.8582V55.9212C84.202 56.6712 84.577 57.3912 84.922 58.1412C85.735 59.4552 87.187 60.8142 88.39 61.7202C89.032 62.2032 89.53 63.0342 90.328 63.3282V63.2502H90.265C90.094 63.0162 89.875 62.9052 89.656 62.7192C89.173 62.2362 88.639 61.6422 88.249 61.1112C87.139 59.6112 86.14 57.9552 85.264 56.2512C84.826 55.4082 84.451 54.5022 84.109 53.6742C83.953 53.3622 83.953 52.8762 83.686 52.7202C83.281 53.2992 82.687 53.7972 82.405 54.5322C81.889 55.6722 81.841 57.0942 81.64 58.5642C81.547 58.5942 81.592 58.5642 81.547 58.6272C80.689 58.4082 80.392 57.5322 80.077 56.7822C79.264 54.8772 79.138 51.8292 79.828 49.6422C80.017 49.0782 80.812 47.3142 80.5 46.7832C80.329 46.2672 79.798 45.9702 79.516 45.5652C79.156 45.0642 78.796 44.4252 78.547 43.8612C77.905 42.3612 77.593 40.7052 76.891 39.2052C76.579 38.5182 76.015 37.7982 75.562 37.1592C75.046 36.4392 74.485 35.9262 74.092 35.0802C73.951 34.7832 73.765 34.3002 73.984 33.9852C74.032 33.7662 74.14 33.6882 74.359 33.6252C74.704 33.3282 75.703 33.7032 76.048 33.8742C77.032 34.2642 77.86 34.6392 78.688 35.2032C79.063 35.4702 79.468 35.9682 79.954 36.1092H80.518C81.376 36.2982 82.33 36.1572 83.128 36.4062C84.55 36.8592 85.831 37.5162 86.986 38.2332C90.487 40.4682 93.361 43.6242 95.314 47.3892C95.641 47.9982 95.782 48.5622 96.079 49.2012C96.625 50.5302 97.33 51.8562 97.891 53.1222C98.452 54.3882 98.986 55.6692 99.796 56.7162C100.201 57.2802 101.797 57.5742 102.529 57.8562C103.06 58.1052 103.888 58.3242 104.356 58.6062C105.277 59.1702 106.183 59.8092 107.044 60.4332C107.482 60.7302 108.811 61.4022 108.889 61.9332L108.892 61.9392Z" fill="#0F172A"/>
</g>
<defs>
<clipPath id="clip0_24_2">
<rect width="96" height="96" fill="white" transform="translate(16 16)"/>
</clipPath>
</defs>
</svg>
