<svg width="128" height="128" viewBox="0 0 128 128" fill="none" xmlns="http://www.w3.org/2000/svg">
<path d="M79.3877 28C76.5865 28.0247 73.81 28.423 71.1145 29.206L70.9277 29.2668C69.238 28.972 67.5167 28.81 65.8067 28.774C62.2675 28.7133 59.23 29.5682 56.782 30.9992C54.3677 30.169 49.3637 28.7133 44.0897 29.008C40.4245 29.206 36.415 30.3198 33.436 33.4608C30.484 36.5905 28.9157 41.4415 29.242 48.052C29.3342 49.8677 29.8517 52.831 30.718 56.6852C31.573 60.5305 32.7812 65.0305 34.2932 69.1435C35.8052 73.2452 37.4545 76.9353 40.0352 79.4418C41.3222 80.695 43.1042 81.7638 45.2012 81.6715C46.6682 81.6108 47.9912 80.9672 49.141 80.0177C49.7012 80.7557 50.302 81.0708 50.8397 81.3655C51.5327 81.7413 52.1875 81.9977 52.8805 82.1642C54.1225 82.4792 56.2442 82.891 58.7282 82.468C59.572 82.3263 60.463 82.0473 61.354 81.6603C61.39 82.6435 61.426 83.6155 61.4597 84.601C61.588 87.706 61.6735 90.577 62.596 93.097C62.749 93.5087 63.1607 95.617 64.7762 97.4913C66.4052 99.3655 69.5665 100.526 73.189 99.7525C75.7337 99.2125 78.9782 98.2293 81.136 95.1603C83.269 92.1363 84.2297 87.7893 84.4187 80.7333C84.4637 80.3463 84.5245 80.0313 84.5807 79.7253L85.0847 79.7725H85.1455C87.8635 79.8895 90.8177 79.5025 93.2905 78.3527C95.4685 77.3447 97.1222 76.3255 98.3282 74.5097C98.623 74.062 98.9605 73.513 99.046 72.5748C99.1382 71.65 98.5982 70.183 97.7072 69.5058C95.9275 68.1468 94.8025 68.662 93.5942 68.9208C92.413 69.1795 91.2025 69.3167 89.9965 69.3527C93.4637 63.5185 95.9477 57.3085 97.3675 51.8207C98.2112 48.574 98.6815 45.586 98.7152 42.9738C98.7625 40.3615 98.542 38.053 96.9805 36.0505C92.0822 29.8045 85.2017 28.0675 79.8827 28.0112C79.7185 28.0112 79.5565 28.0112 79.39 28.0112L79.3877 28ZM79.246 29.9238C84.2747 29.8765 90.7052 31.2828 95.3222 37.1868C96.3662 38.512 96.6722 40.4447 96.6362 42.8365C96.6002 45.2282 96.157 48.0745 95.347 51.2042C93.79 57.277 90.8222 64.3285 86.6642 70.6713C86.806 70.777 86.968 70.8692 87.1322 70.93C87.9985 71.2922 89.9785 71.596 93.9385 70.7883C94.9352 70.5745 95.6642 70.4372 96.4247 71.011C96.8005 71.326 96.9985 71.7963 96.9737 72.289C96.9287 72.6513 96.8005 73.0022 96.5755 73.297C95.8127 74.4422 94.3052 75.5357 92.3702 76.438C90.6602 77.2322 88.1965 77.644 86.032 77.6688C84.9317 77.68 83.9237 77.5968 83.0642 77.3268L83.0192 77.3178C82.6885 80.4925 81.9302 86.7745 81.4352 89.632C81.0392 91.9383 80.3462 93.781 79.0232 95.1512C77.698 96.535 75.835 97.354 73.315 97.894C70.1987 98.5622 67.9352 97.8468 66.4727 96.616C65.0102 95.3853 64.3397 93.745 63.9415 92.7483C63.6625 92.0575 63.5207 91.1665 63.3812 89.9695C63.2395 88.7747 63.1472 87.3213 63.0752 85.6698C62.983 83.1498 62.947 80.6298 62.983 78.0985C61.6847 79.2955 60.067 80.0785 58.33 80.3845C56.2577 80.7355 54.4172 80.3845 53.317 80.1145C52.777 79.9728 52.2482 79.7748 51.7577 79.5048C51.2425 79.2348 50.761 78.931 50.4347 78.319C50.2457 77.968 50.1895 77.5607 50.2705 77.1737C50.3627 76.7755 50.5967 76.4358 50.9162 76.177C51.5125 75.6933 52.3 75.4277 53.4812 75.1802C55.639 74.7325 56.3995 74.431 56.8562 74.0642C57.2432 73.7605 57.691 73.1283 58.4605 72.2013C58.4605 72.1675 58.4605 72.1203 58.4492 72.0843C57.0565 72.0393 55.6952 71.677 54.4645 71.0065C54.0212 71.4745 51.7105 73.9135 48.9115 77.2885C47.7392 78.6925 46.4387 79.5025 45.0572 79.5632C43.687 79.6195 42.4405 78.931 41.3875 77.9095C39.2792 75.8575 37.5895 72.3295 36.1247 68.3447C34.66 64.36 33.4765 59.9208 32.6215 56.1475C31.7777 52.3608 31.2737 49.3142 31.2017 47.8495C30.8867 41.6035 32.3515 37.3982 34.858 34.7365C37.3645 32.0747 40.8002 31.0803 44.1527 30.8823C50.1647 30.5425 55.882 32.6395 57.0317 33.085C59.257 31.573 62.128 30.637 65.7145 30.6933C67.4155 30.718 69.1007 30.9385 70.7545 31.3502L70.8152 31.3143C71.542 31.069 72.28 30.8462 73.0292 30.6842C75.07 30.2005 77.1535 29.9552 79.2392 29.9215L79.246 29.9238ZM79.7027 31.9263H79.2595C77.5495 31.9465 75.8237 32.149 74.1497 32.5113C77.887 34.165 80.7107 36.7053 82.702 39.2613C84.0857 41.0185 85.222 42.9512 86.0882 45.0145C86.4302 45.8132 86.653 46.4793 86.77 46.9945C86.8397 47.2533 86.8757 47.4737 86.8982 47.6965C86.8982 47.8135 86.9095 47.9327 86.851 48.1307C86.851 48.142 86.8397 48.1668 86.8397 48.178C86.9365 50.8038 86.2795 52.5812 86.194 55.09C86.1377 56.908 86.6057 59.041 86.7227 61.372C86.8285 63.5612 86.5607 65.9642 85.141 68.3312C85.258 68.473 85.3637 68.6125 85.4807 68.7655C89.2427 62.8345 91.9607 56.2848 93.403 50.6935C94.177 47.6808 94.5842 44.9515 94.6202 42.7983C94.6562 40.6405 94.258 39.07 93.7405 38.4153C89.7085 33.2695 84.2612 31.9555 79.7005 31.924L79.7027 31.9263ZM65.323 32.698C61.786 32.7093 59.2412 33.778 57.3107 35.3822C55.315 37.0472 53.9807 39.3085 53.1145 41.6395C52.0705 44.3935 51.7082 47.0643 51.5665 48.8823L51.6137 48.8575C52.6825 48.2613 54.0865 47.6515 55.5985 47.3118C57.0992 46.9585 58.7282 46.8528 60.1907 47.4288C61.669 47.989 62.875 49.3367 63.3205 51.364C65.4332 61.138 62.6657 64.7718 61.6465 67.5123C61.2595 68.509 60.9197 69.517 60.6497 70.5475C60.778 70.5227 60.9085 70.4868 61.0367 70.4755C61.7635 70.4193 62.3237 70.6532 62.6545 70.7927C63.6872 71.2247 64.3892 72.1157 64.7762 73.135C64.8685 73.405 64.9382 73.684 64.9855 73.99C65.0215 74.107 65.0462 74.2353 65.0462 74.3658C64.9292 78.103 64.9382 81.8425 65.08 85.5797C65.152 87.1975 65.2577 88.615 65.386 89.74C65.5142 90.8538 65.6897 91.7087 65.809 92.0012C66.1937 92.962 66.7562 94.2153 67.7777 95.0703C68.7857 95.9275 70.237 96.49 72.8987 95.9275C75.205 95.4235 76.6247 94.7417 77.572 93.7585C78.5237 92.7617 79.084 91.3915 79.4462 89.2945C79.9975 86.1423 81.0865 77.0005 81.217 75.2905C81.1607 73.9877 81.3452 72.9933 81.7682 72.2305C82.189 71.4565 82.846 70.9773 83.422 70.7185C83.701 70.5903 83.971 70.5093 84.1937 70.4373C83.9597 70.111 83.7145 69.7825 83.467 69.4653C82.648 68.4685 81.9662 67.357 81.4622 66.1735C81.2282 65.6785 80.9695 65.1858 80.6882 64.7178C80.2922 64.0045 79.7882 63.1 79.2595 62.0808C78.2042 60.0648 77.0567 57.6055 76.4582 55.2138C75.862 52.822 75.781 50.3515 77.3042 48.6168C78.652 47.0688 81.0302 46.4275 84.5785 46.7897C84.4727 46.4725 84.4165 46.2025 84.2387 45.793C83.431 43.894 82.3757 42.112 81.109 40.4942C78.0962 36.64 73.2092 32.8173 65.6762 32.689L65.323 32.698ZM45.4037 32.851C45.028 32.851 44.641 32.8622 44.2675 32.887C41.2322 33.0647 38.3725 33.94 36.3205 36.109C34.2707 38.2893 32.9252 41.8398 33.2155 47.7347C33.2762 48.8597 33.7555 51.976 34.5857 55.6908C35.4205 59.4078 36.6017 63.7795 38.0215 67.645C39.4367 71.4993 41.1512 74.863 42.7915 76.456C43.6105 77.2412 44.3237 77.5697 44.9695 77.5472C45.6152 77.5112 46.4005 77.1355 47.3612 75.988C49.1072 73.8797 50.914 71.839 52.7882 69.8478C50.0905 67.492 48.7675 63.9325 49.2962 60.391C49.6 58.177 49.6472 56.1003 49.6 54.46C49.5662 52.867 49.4582 51.814 49.4582 51.1457C49.4582 51.121 49.4582 51.1098 49.4582 51.085V51.0738L49.447 51.0535C49.447 47.5953 50.059 44.1752 51.229 40.9285C52.0727 38.6875 53.317 36.4285 55.189 34.5858C53.3507 33.976 50.0792 33.0647 46.5422 32.887C46.1665 32.8622 45.7772 32.851 45.4037 32.851ZM82.5962 48.6932C80.56 48.7292 79.4215 49.258 78.814 49.9352C77.968 50.9095 77.887 52.6195 78.4157 54.73C78.94 56.8383 80.0335 59.194 81.0527 61.1537C81.5567 62.137 82.0495 63.0168 82.4455 63.73C82.8572 64.4568 83.1497 64.9608 83.3252 65.4062C83.4895 65.8045 83.6785 66.1555 83.8652 66.484C84.6505 64.819 84.7922 63.19 84.709 61.48C84.6032 59.3718 84.1127 57.214 84.1937 55.036C84.277 52.48 84.781 50.815 84.817 48.8463C84.088 48.754 83.3387 48.6932 82.6007 48.6932H82.5962ZM57.8957 49.0487C57.2747 49.0487 56.6537 49.1298 56.044 49.2715C54.8357 49.5663 53.677 50.0095 52.5857 50.6193C52.2235 50.8173 51.8725 51.0422 51.544 51.301L51.472 51.3572C51.4967 51.805 51.5777 52.858 51.6137 54.4285C51.6497 56.1385 51.6137 58.3165 51.2875 60.6745C50.5607 65.8068 54.2867 70.0503 58.6585 70.0615C58.9172 69.0063 59.3357 67.9375 59.7587 66.8147C60.976 63.532 63.3677 61.1425 61.3517 51.7915C61.0255 50.2683 60.3685 49.6473 59.464 49.2963C58.96 49.1185 58.4357 49.0375 57.8957 49.051V49.0487ZM81.649 49.6562H81.802C81.9887 49.6675 82.1777 49.681 82.3397 49.726C82.4927 49.762 82.6345 49.8093 82.7515 49.8903C82.8685 49.96 82.9495 50.077 82.9742 50.2165V50.2413C82.9742 50.383 82.9382 50.5225 82.8685 50.653C82.7762 50.815 82.6705 50.968 82.5422 51.0963C82.2362 51.436 81.8245 51.661 81.3812 51.7285C80.947 51.7892 80.515 51.6723 80.1505 51.4248C80.0087 51.3168 79.8692 51.1997 79.7635 51.0715C79.6577 50.9657 79.5992 50.8262 79.5745 50.6845C79.5655 50.5472 79.5992 50.4055 79.6915 50.2998C79.7995 50.1918 79.9165 50.0995 80.0447 50.0298C80.335 49.8655 80.722 49.7485 81.1697 49.6877C81.3317 49.6675 81.496 49.654 81.649 49.6428V49.6562ZM58.186 50.1602C58.339 50.1602 58.5167 50.1715 58.681 50.194C59.149 50.266 59.5472 50.383 59.8622 50.5698C60.0152 50.6418 60.157 50.7587 60.2605 50.887C60.3775 51.0287 60.4337 51.202 60.4247 51.391C60.3887 51.5642 60.3167 51.7308 60.1997 51.859C60.0715 52.012 59.932 52.1403 59.7677 52.246C59.3807 52.5273 58.9015 52.6443 58.42 52.5858C57.9362 52.5048 57.493 52.2708 57.1667 51.9085C57.025 51.7555 56.908 51.5912 56.8135 51.4157C56.7077 51.2515 56.6627 51.0647 56.6852 50.8757C56.7325 50.5607 57.0025 50.383 57.2612 50.2907C57.556 50.194 57.871 50.1625 58.186 50.1737V50.1602ZM85.3637 72.19H85.3525C84.9205 72.3542 84.5582 72.415 84.2522 72.5567C83.9372 72.6737 83.6875 72.9077 83.539 73.198C83.3387 73.54 83.188 74.1497 83.233 75.1892C83.3612 75.286 83.5142 75.3535 83.6807 75.403C84.1847 75.556 85.051 75.6618 86.0117 75.6483C87.922 75.6235 90.2777 75.1803 91.531 74.593C92.5502 74.125 93.511 73.4928 94.3547 72.7548C90.172 73.6098 87.8185 73.387 86.3627 72.7907C86.0117 72.6377 85.6697 72.4375 85.3637 72.19ZM61.2707 72.4712H61.21C61.048 72.4825 60.823 72.5433 60.3662 73.036C59.3222 74.206 58.96 74.944 58.105 75.6257C57.2387 76.3165 56.125 76.681 53.8862 77.1378C53.1842 77.2795 52.7725 77.4415 52.5025 77.5698C52.5835 77.6418 52.5835 77.6665 52.7117 77.7228C53.0425 77.9118 53.461 78.0647 53.803 78.157C54.7637 78.391 56.332 78.6722 57.9857 78.391C59.626 78.1097 61.336 77.3222 62.803 75.2747C63.0617 74.9237 63.082 74.395 62.8727 73.8325C62.6635 73.2835 62.2045 72.7908 61.8895 72.6625C61.6892 72.5658 61.4777 72.5095 61.2685 72.4735L61.2707 72.4712Z" fill="#0F172A"/>
</svg>
