<svg width="128" height="128" viewBox="0 0 128 128" fill="none" xmlns="http://www.w3.org/2000/svg">
<path d="M90.5565 59.05V62.515H87.087V65.9867H90.5565V69.4585H94.0282V65.9867H97.5V62.515H94.0282V59.05H90.5565ZM82.6815 59.05H79.2075V62.515H75.7357V65.9867H79.2075V69.4585H82.6792V65.9867H86.151V62.515H82.6792L82.6815 59.05ZM74.46 70.8085C72.9595 73.4753 70.6196 75.5714 67.8044 76.7705C64.9892 77.9696 61.8565 78.2045 58.894 77.4386C55.9314 76.6728 53.3051 74.9491 51.4237 72.5358C49.5424 70.1226 48.5114 67.1551 48.4914 64.0952C48.4714 61.0354 49.4635 58.0547 51.3131 55.617C53.1628 53.1794 55.7663 51.4215 58.7186 50.617C61.6709 49.8124 64.8063 50.0063 67.637 51.1685C70.4677 52.3307 72.8348 54.396 74.37 57.043L86.4975 50.068C83.4252 44.7534 78.6839 40.6021 73.01 38.2589C67.3361 35.9157 61.0472 35.5118 55.1202 37.1099C49.1931 38.7081 43.9597 42.2187 40.2329 47.0967C36.506 51.9746 34.4943 57.9467 34.5102 64.0854C34.5261 70.2241 36.5688 76.1857 40.3209 81.0442C44.073 85.9028 49.3246 89.3863 55.2598 90.9536C61.195 92.521 67.4818 92.0845 73.1434 89.7119C78.8051 87.3393 83.5248 83.1635 86.5695 77.833L74.46 70.8085Z" fill="#0F172A"/>
</svg>
