<svg width="128" height="128" viewBox="0 0 128 128" fill="none" xmlns="http://www.w3.org/2000/svg">
<path d="M95.9375 28.0705L89.9483 92.9427L63.9996 99.9296L38.0505 92.9427L32.0625 28.0705H95.9375ZM83.8689 41.2612H63.9762H43.7312L44.6994 49.0952H63.9762H65.059L63.9762 49.5459L45.4039 57.2811L46.0198 64.9385L63.9762 64.9968L73.6003 65.0273L72.9842 75.2375L63.9761 77.7737V77.7657L63.9023 77.7862L55.2026 75.59L54.6747 69.2521H54.6459H46.5766H46.5482L47.6044 81.4874L63.9764 86.329V86.3203L64.0059 86.329L80.2901 81.5756L82.4025 57.2811H63.9764H63.931L63.9764 57.2614L83.0775 49.0952L83.8689 41.2612Z" fill="#0F172A"/>
</svg>
