<svg width="128" height="128" viewBox="0 0 128 128" fill="none" xmlns="http://www.w3.org/2000/svg">
<path d="M55.2697 57.3019C54.6047 55.8315 54.3066 54.1165 54.8147 52.5585C55.3226 50.9656 56.4604 49.6879 57.5982 48.4975C60.7658 45.3291 64.6695 43.0012 67.7676 39.7807C69.4828 38.0126 70.9005 35.8947 71.3904 33.4615C71.7932 31.6762 71.6008 29.8384 71.2333 28.0703C72.8787 29.9433 73.4213 32.6214 72.9485 35.037C72.4412 37.75 70.9354 40.1479 69.1677 42.2132C67.7501 43.8764 66.1219 45.3467 64.4243 46.7123C62.4464 48.3051 60.5037 50.0203 59.2611 52.2609C58.2103 54.081 57.9652 56.3216 58.6831 58.2996C59.8561 61.6952 62.5863 64.2159 64.0744 67.4189C62.4287 65.9659 60.8187 64.4607 59.3128 62.8681C57.7381 61.1876 56.25 59.4025 55.2697 57.3019ZM64.1966 54.6411C63.8992 57.4244 65.3516 60.0498 67.0849 62.1155C67.9247 63.043 68.6425 64.1808 68.6772 65.4763C68.7125 67.2085 67.7328 68.8195 66.4716 69.9567C66.7696 69.9221 66.9796 69.6593 67.2247 69.5194C69.1151 68.3116 70.9351 66.7887 71.8628 64.7062C72.4755 63.2883 72.3356 61.6077 71.5306 60.2947C70.5851 58.7544 69.3426 57.3891 68.6076 55.7089C68.2044 54.7638 68.0645 53.6611 68.3972 52.6634C68.8351 51.3158 69.7801 50.2128 70.778 49.2501C73.5258 46.6424 76.8515 44.7863 80.0373 42.7562C76.0114 43.9113 72.0381 45.5043 68.6425 48.0076C66.4894 49.6179 64.4943 51.8582 64.1966 54.6411ZM83.3285 67.8042C85.2365 67.9094 87.1088 69.3094 87.4592 71.235C87.7919 72.8979 86.987 74.5431 85.9538 75.8032C84.2558 77.8336 81.9626 79.2866 79.6528 80.5295C79.4247 80.6688 79.2324 80.8441 79.0573 81.0369C82.1031 80.2665 85.1483 79.1118 87.6167 77.1337C88.9815 75.9959 90.1893 74.4901 90.4521 72.6873C90.6972 71.1297 90.05 69.5192 88.8944 68.4866C87.4938 67.2084 85.5165 66.7361 83.6607 66.9814C82.5929 67.1213 81.4204 67.3488 80.6853 68.2415C81.5608 68.067 82.4178 67.7166 83.3285 67.8042ZM45.3278 72.8097C47.6204 73.4224 49.9836 73.5977 52.3291 73.7553C54.4295 73.8952 56.5303 73.9305 58.6484 73.9128C64.1093 73.8257 69.6053 73.4577 74.9613 72.2676C75.4687 72.1453 76.0291 72.0577 76.4847 71.7427C77.3772 71.1647 78.3568 70.7095 79.32 70.2544C74.9613 70.9546 70.5853 71.5503 66.1746 71.8301C61.7112 72.1101 57.2125 72.2852 52.7319 71.9878C51.4542 71.8654 50.1411 71.795 48.951 71.3046C48.6706 71.1823 48.2855 70.9377 48.4254 70.5696C48.6882 70.0969 49.2133 69.8697 49.6684 69.6246C51.5941 68.7143 53.6943 68.2069 55.7424 67.6118C52.2238 67.5589 48.7229 68.4515 45.5029 69.8345C44.785 70.1848 43.9799 70.4647 43.4025 71.0599C43.1744 71.3045 43.1744 71.7254 43.4373 71.9349C43.9625 72.4075 44.6622 72.6175 45.3278 72.8097ZM73.684 77.6238C70.6206 78.1664 67.5395 78.6745 64.4413 78.8316C61.0456 79.0591 57.65 78.8663 54.2894 78.5164C53.642 78.4288 52.9941 78.3241 52.4167 78.0266C52.1192 77.8514 51.8217 77.5716 51.8393 77.2034C51.8741 76.626 52.3639 76.2237 52.7143 75.8034C51.6294 76.1885 50.5439 76.5907 49.6338 77.3092C49.2482 77.6067 48.8634 78.079 48.9682 78.604C49.1264 79.2166 49.7214 79.5842 50.2465 79.864C51.5413 80.5296 52.9943 80.8268 54.4125 81.0895C58 81.6674 61.6585 81.685 65.2641 81.4393C69.0808 81.1419 72.8787 80.512 76.5719 79.4266C75.5217 78.9543 74.5238 78.4111 73.684 77.6238ZM54.4471 83.6806C53.4669 83.9605 52.469 84.2933 51.6641 84.9402C51.2608 85.2553 50.9462 85.7986 51.139 86.3061C51.3841 86.9535 51.9968 87.3392 52.5738 87.6708C54.0796 88.4941 55.7772 88.8787 57.44 89.1767C61.2038 89.7714 65.0717 89.684 68.8177 89.0192C71.0404 88.5988 73.2635 88.0037 75.3288 87.0764C73.981 86.5162 72.6686 85.8858 71.4084 85.1508C69.2204 85.5359 67.0145 85.9388 64.774 86.0787C61.8164 86.3062 58.8229 86.0611 55.8647 85.6937C55.1644 85.536 54.2894 85.4661 53.8168 84.8533C53.5722 84.3452 54.1321 83.9776 54.4471 83.6806ZM78.3923 94.935C80.8425 94.4282 83.3109 93.8495 85.5512 92.7122C86.251 92.3091 87.1088 91.8715 87.3369 91.0318C87.4592 90.2267 86.619 89.8064 86.0239 89.4737C86.3913 89.8945 86.6364 90.5068 86.2685 90.9966C85.6558 91.8197 84.6062 92.1344 83.6782 92.4496C80.7729 93.2722 77.7619 93.6049 74.7689 93.9377C66.8398 94.6551 58.8578 94.8303 50.9291 94.1652C48.2684 93.8848 45.5548 93.5874 43.0169 92.6424C42.6147 92.4671 42.002 92.2919 42.002 91.7491C42.1591 91.2775 42.6147 91.0141 43.0169 90.7865C44.8373 89.8591 46.8678 89.3512 48.8982 89.2288C48.3036 88.8785 47.6033 88.8438 46.9207 88.8614C45.2225 88.9138 43.5597 89.3512 41.9497 89.8945C40.5668 90.4014 39.149 90.9619 38.046 91.9773C37.6085 92.362 37.2063 93.097 37.6608 93.6225C38.3611 94.3753 39.4466 94.5675 40.4086 94.795C45.7999 95.723 51.2608 96.2474 56.7227 96.4402C63.9692 96.6509 71.2681 96.3356 78.3923 94.935ZM85.5688 95.8805C82.2779 96.9307 78.8649 97.5081 75.4688 97.9809C69.6053 98.716 63.6888 98.9435 57.79 98.7688C54.202 98.6289 50.6139 98.3838 47.0778 97.7881C47.9004 98.3484 48.9159 98.5232 49.8613 98.786C53.8349 99.6264 57.9128 99.7839 61.9565 99.9062C67.8894 100.011 73.8234 99.7839 79.6699 98.856C82.4358 98.3666 85.2188 97.7711 87.7038 96.4757C88.9996 95.7931 90.3126 94.7423 90.5392 93.2199C89.2269 94.6198 87.3369 95.2678 85.5688 95.8805Z" fill="#0F172A"/>
</svg>
