<svg width="128" height="128" viewBox="0 0 128 128" fill="none" xmlns="http://www.w3.org/2000/svg">
<path d="M28 28V100H100V28H28ZM67.1821 84.1536C67.1821 91.1607 63.0679 94.3589 57.0732 94.3589C51.6571 94.3589 48.5232 91.5625 46.9161 88.1714L52.4286 84.8446C53.4893 86.725 54.4536 88.3161 56.7839 88.3161C59.0018 88.3161 60.4161 87.4482 60.4161 84.0571V61.0589H67.1821V84.1536ZM83.1893 94.3589C76.9054 94.3589 72.8393 91.3696 70.8625 87.4482L76.375 84.2661C77.8214 86.6286 79.7179 88.3804 83.0446 88.3804C85.8411 88.3804 87.6411 86.9821 87.6411 85.0375C87.6411 82.7232 85.8089 81.9036 82.7071 80.5375L81.0196 79.8143C76.1339 77.7411 72.9036 75.1214 72.9036 69.6089C72.9036 64.5304 76.7768 60.6732 82.8036 60.6732C87.1107 60.6732 90.1964 62.1679 92.4143 66.0893L87.1429 69.4643C85.9857 67.3911 84.7321 66.5714 82.7875 66.5714C80.8107 66.5714 79.5571 67.825 79.5571 69.4643C79.5571 71.4893 80.8107 72.3089 83.7196 73.5786L85.4071 74.3018C91.1607 76.7607 94.3911 79.2839 94.3911 84.9411C94.3911 91.0161 89.6018 94.3589 83.1893 94.3589Z" fill="#0F172A"/>
</svg>
