<svg width="128" height="128" viewBox="0 0 128 128" fill="none" xmlns="http://www.w3.org/2000/svg">
<g clip-path="url(#clip0_3_73)">
<path fill-rule="evenodd" clip-rule="evenodd" d="M73.8784 94.4488C72.1432 94.4488 70.7392 93.0378 70.7392 91.2936C70.7392 89.5493 72.1432 88.1418 73.8784 88.1418C75.6136 88.1418 77.0176 89.5493 77.0176 91.2936C77.0176 93.0378 75.6136 94.4488 73.8784 94.4488ZM64.2592 100C82.54 100 81.3988 92.0318 81.3988 92.0318L81.3772 83.7771H63.9352V81.2986H88.3036C88.3036 81.2986 100 82.6341 100 64.0949C100 45.5557 89.794 46.2092 89.794 46.2092H83.6991V54.8154C83.6991 54.8154 84.0268 65.074 73.6552 65.074H56.3536C56.3536 65.074 46.6336 64.9198 46.6336 74.5205V90.3918C46.6336 90.3918 45.1576 100 64.2592 100ZM54.1252 33.5512C55.8604 33.5512 57.2608 34.9622 57.2608 36.7064C57.2608 38.4507 55.8604 39.8582 54.1252 39.8582C52.39 39.8582 50.986 38.4507 50.986 36.7064C50.986 34.9622 52.39 33.5512 54.1252 33.5512ZM63.7408 28C45.4636 28 46.6048 35.9682 46.6048 35.9682L46.6264 44.2229H64.0684V46.7014H39.6964C39.6964 46.7014 28 45.3659 28 63.9051C28 82.4443 38.2096 81.7908 38.2096 81.7908H44.3009V73.1846C44.3009 73.1846 43.9732 62.926 54.3484 62.926H71.6464C71.6464 62.926 81.3664 63.0802 81.3664 53.4795V37.6082C81.3664 37.6082 82.8424 28 63.7408 28Z" fill="#0F172A"/>
</g>
<defs>
<clipPath id="clip0_3_73">
<rect width="72" height="72" fill="white" transform="translate(28 28)"/>
</clipPath>
</defs>
</svg>
