<svg width="128" height="128" viewBox="0 0 128 128" fill="none" xmlns="http://www.w3.org/2000/svg">
<g clip-path="url(#clip0_3_50)">
<path d="M28 64V100H100V28H28V64ZM86.0185 61.129C87.8477 61.5857 89.2405 62.407 90.5298 63.73C91.1868 64.432 92.17 65.7213 92.2532 66.0385C92.2757 66.133 89.1483 68.23 87.2493 69.4022C87.1795 69.4495 86.8983 69.157 86.5923 68.698C85.6675 67.3502 84.6932 66.7652 83.206 66.6595C81.0257 66.5177 79.6195 67.6563 79.6308 69.5665C79.6195 70.0345 79.7253 70.5047 79.9345 70.9142C80.416 71.911 81.3183 72.5073 84.106 73.7155C89.263 75.9295 91.4657 77.3943 92.836 79.4688C94.3705 81.7885 94.7102 85.492 93.6797 88.2573C92.5322 91.2453 89.695 93.2838 85.7103 93.952C84.4795 94.1748 81.55 94.1387 80.2248 93.8935C77.3313 93.3782 74.5885 91.9472 72.901 90.073C72.2327 89.3462 70.9435 87.436 71.0267 87.3077C71.0627 87.2605 71.3553 87.0737 71.6838 86.8847C72.0123 86.6957 73.2183 85.9937 74.3568 85.3367L76.4312 84.1308L76.8655 84.7742C77.4753 85.699 78.7982 86.9657 79.597 87.3865C81.8942 88.606 85.0465 88.4305 86.6058 87.0355C87.238 86.509 87.5913 85.699 87.544 84.88C87.544 84.0475 87.4383 83.674 87.004 83.0507C86.4415 82.2542 85.3052 81.5748 82.0585 80.1685C78.3437 78.562 76.7373 77.5788 75.286 75.997C74.3725 74.953 73.693 73.7245 73.306 72.3992C73.036 71.38 72.9663 68.824 73.1778 67.8047C73.9405 64.207 76.6585 61.7117 80.56 60.9737C81.8268 60.7285 84.7788 60.8207 86.0208 61.1267L86.0185 61.129ZM69.121 64.1417L69.1435 67.0825H59.7678V93.7202H53.1347V67.0825H43.7725V64.2003C43.7725 62.5938 43.8085 61.2595 43.8535 61.2235C43.8895 61.1762 49.5843 61.1537 56.4985 61.165L69.085 61.201L69.121 64.1417Z" fill="#0F172A"/>
</g>
<defs>
<clipPath id="clip0_3_50">
<rect width="72" height="72" fill="white" transform="translate(28 28)"/>
</clipPath>
</defs>
</svg>
